<?xml version="1.0" standalone="no"?>
<!DOCTYPE svg PUBLIC "-//W3C//DTD SVG 1.1//EN" "http://www.w3.org/Graphics/SVG/1.1/DTD/svg11.dtd">
<svg xmlns="http://www.w3.org/2000/svg">
<metadata>Copyright (C) 2015 Platypi, LLC</metadata>
<defs>
<font id="platypus-icons" horiz-adv-x="1000" >
<font-face font-family="platypus-icons" font-weight="400" font-stretch="normal" units-per-em="1000" ascent="850" descent="-150" />
<missing-glyph horiz-adv-x="1000" />
<glyph glyph-name="cog" unicode="&#xe800;" d="m733 370h-60c-3 32-15 62-34 87l41 41c1 1 1 1 1 2s0 2-1 2l-27 28c-1 1-3 1-4 0l-40-40c-26 20-56 33-88 37v56c0 2-1 3-3 3h-34c-2 0-3-1-3-3v-56c-33-4-63-16-89-36l-40 40c-1 1-3 1-4 0l-28-28c-1-1-1-3 0-4l40-40c-19-26-31-56-34-88h-59c-2 0-3-1-3-3v-34c0-2 1-3 3-3h60c4-31 16-61 36-85l-43-45c-1-1-1-1-1-2s0-2 1-2l27-24c1 0 1-1 2-1 1 0 1 0 2 1l44 40c25-18 54-30 85-33v-63c0-2 1-3 3-3h34c2 0 3 1 3 3v63c31 3 60 15 85 33l44-44c1-1 1-1 2-1 0 0 0 0 0 0 1 0 2 0 2 1l24 27c1 1 1 3 0 4l-40 43c19 24 32 53 36 85h60c2 0 3 1 3 3v34c0 4-1 5-3 5z m-333-17c0 57 43 100 100 100 57 0 100-43 100-100s-43-100-100-100c-57 1-100 44-100 100z" horiz-adv-x="1000" />
<glyph glyph-name="desktop" unicode="&#xe801;" d="m756 186h-512v390h513v-390z m-506 6h500v378h-500v-378z m366-68h-229c-9 0-13 9-13 13 0 1 0 2 1 2 23 16 77 52 84 52h89c1 0 4 0 80-52 1-1 1-1 1-2 1-8-8-13-13-13z m-236 12c1-2 3-6 7-6h229c2 0 6 2 7 6-28 19-72 48-76 50l-88 0c-5-1-44-26-79-50z m339 89h-442c-1 0-1 1-1 2v311c0 1 1 1 1 1h442c1 0 2-1 2-1v-312c0 0-1-1-2-1z m-440 3h439v309h-439v-309z" horiz-adv-x="1000" />
<glyph glyph-name="download" unicode="&#xe802;" d="m723 183h-446c-2 0-3 1-3 3s1 3 3 3h445c2 0 3-1 3-3s-1-3-2-3z m-223 149l-2 2-182 182c-1 1-1 3 0 4 1 1 3 1 4 0l180-179 176 179c1 1 3 1 4 0 1-1 1-3 0-4l-180-184z" horiz-adv-x="1000" />
<glyph glyph-name="envelope" unicode="&#xe803;" d="m500 296c-1 0-2 0-2 1l-230 229c-1 1-1 3 0 4 1 1 3 1 4 0l228-227 227 227c1 1 3 1 4 0 1-1 1-3 0-4l-229-229c0-1-1-1-2-1z m240-137h-483c-2 0-3 1-3 3v376c0 2 1 3 3 3h483c2 0 3-1 3-3v-377c0-1-2-2-3-2z m-480 6h477v370h-477v-370z" horiz-adv-x="1000" />
<glyph glyph-name="exclamation-o" unicode="&#xe804;" d="m524 289h-45c-1 0-3 1-3 3l-45 301c0 1 0 2 1 2 1 1 1 1 2 1h130c1 0 2 0 2-1 1-1 1-2 1-2l-41-301c1-2-1-3-2-3z m-42 6h39l40 295h-123l44-295z m18-191c-28 0-51 23-51 51s23 51 51 51c28 0 51-23 51-51s-23-51-51-51z m0 96c-25 0-45-20-45-45s20-45 45-45c25 0 45 20 45 45s-20 45-45 45z" horiz-adv-x="1000" />
<glyph glyph-name="exclamation" unicode="&#xe805;" d="m483 299h38c2 0 3 1 3 3l34 250c0 1 0 2-1 2-1 1-1 1-2 1h-110c-1 0-2 0-2-1-1-1-1-2-1-2l38-250c0-2 1-3 3-3z m17-69c-22 0-41-18-41-41 0-22 18-41 41-41 22 0 41 18 41 41 0 22-19 41-41 41z" horiz-adv-x="1000" />
<glyph glyph-name="eye-closed" unicode="&#xe806;" d="m500 313c-157 0-238 134-239 135-1 1 0 3 1 4 1 1 3 0 4-1 1-1 80-132 234-132 151 0 233 131 234 132 1 1 3 2 4 1 1-1 2-3 1-4-1-2-85-135-239-135z m0-65c-2 0-3 1-3 3v65c0 2 1 3 3 3 2 0 3-1 3-3v-65c0-2-1-3-3-3z m186 59c-1 0-2 1-3 2l-31 55c-1 1 0 3 1 4 1 1 3 0 4-1l31-55c1-1 0-3-1-4 0 0-1-1-1-1z m-382 7c0 0-1 0-1 0-1 1-2 3-1 4l31 55c1 1 3 2 4 1 1-1 2-3 1-4l-31-55c-1-1-2-1-3-1z" horiz-adv-x="1000" />
<glyph glyph-name="eye" unicode="&#xe807;" d="m500 183c-171 0-238 134-239 135l-1 1 1 1c1 1 85 135 239 135 157 0 238-134 239-135l1-1-1-1c-1-1-68-135-239-135z m-233 136c8-15 75-130 233-130s225 116 233 130c-9 14-88 131-233 131-142 0-223-117-233-131z m233 88c-46 0-84-38-84-84 0-46 38-84 84-84s84 37 84 84c0 46-38 84-84 84z m0-159c-41 0-74 33-74 74 0 41 33 74 74 74s74-33 74-74c0-41-33-74-74-74z m0 202c-2 0-3 1-3 3v65c0 2 1 3 3 3s3-1 3-3v-65c0-2-1-3-3-3z m-154-50c-1 0-2 1-3 2l-31 55c-1 1 0 3 1 4 1 1 3 0 4-1l31-55c1-1 0-3-1-4 0-1-1-1-1-1z m319-6l0 0c-2 1-3 3-2 4l31 55c1 1 3 2 4 1 1-1 2-3 1-4l-31-55c-1-1-2-1-3-1z" horiz-adv-x="1000" />
<glyph glyph-name="heart-o" unicode="&#xe808;" d="m497 145c0 0-1 0-1 0-1 0-91 39-166 134-42 54-62 124-51 180 7 35 26 62 55 78 28 17 56 21 83 13 54-16 85-77 86-80 1-1 0-3-1-4-1-1-3 0-4 1 0 1-30 61-82 77-25 7-51 3-78-13-28-15-46-40-52-74-11-54 8-123 50-175 74-94 162-132 163-133 2-1 2-2 2-4-2 1-3 0-4 0z m6 0c-1 0-2 1-3 2-1 2 0 3 2 4 1 0 89 39 163 133 41 52 61 121 50 175-7 33-25 59-52 74-27 16-53 20-78 13-52-15-82-76-82-77-1-1-3-2-4-1s-2 3-1 4c1 3 32 64 86 80 27 8 55 3 83-14 29-16 48-43 55-78 11-56-9-127-51-180-75-95-165-134-166-134-1-1-1-1-2-1z" horiz-adv-x="1000" />
<glyph glyph-name="heart" unicode="&#xe809;" d="m720 460c-7 35-26 62-55 78-19 11-38 17-57 17-61 0-99-61-109-79-10 18-49 77-110 77-18 0-37-5-56-16-28-17-47-44-54-78-11-54 9-125 50-180 75-95 165-134 166-134h1 7c1 0 1 0 0 1 1 0 91 39 166 134 42 53 62 124 51 180z" horiz-adv-x="1000" />
<glyph glyph-name="link" unicode="&#xe80a;" d="m473 320c-1 0-2 0-2 1-17 17-27 40-27 64s9 47 27 64l110 110c35 35 92 35 128 0 17-17 27-40 27-64s-9-47-27-64l-89-86c-1-1-3-1-4 0-1 1-1 3 0 4l89 86c16 16 25 37 25 59s-9 44-25 60c-33 33-86 33-119 0l-110-110c-16-16-25-37-25-60s9-44 25-60c1-1 1-3 0-4-2 0-3 0-3 0z m-117-204c-23 0-46 9-64 26-35 35-35 92 0 128l89 89c1 1 3 1 4 0s1-3 0-4l-89-89c-33-33-33-86 0-119 33-33 86-33 119 0l110 110c16 16 25 37 25 60 0 22-9 44-25 60-1 1-1 3 0 4s3 1 4 0c17-17 27-40 27-64 0-24-9-47-27-64l-110-110c-17-18-40-27-63-27z" horiz-adv-x="1000" />
<glyph glyph-name="multimedia" unicode="&#xe80b;" d="m747 155h-494c-2 0-3 1-3 3v384c0 2 1 3 3 3h493c2 0 3-1 3-3v-384c1-1-1-3-2-3z m-491 6h487v378h-487v-378z m487 292h-483c-2 0-3 1-3 3s1 3 3 3h483c2 0 3-1 3-3s-1-3-3-3z m-7-209h-476c-2 0-3 1-3 3s2 3 3 3h476c2 0 3-1 3-3s-1-3-3-3z m-397 223c-2 0-3 1-3 3v51c0 2 1 3 3 3s3-1 3-3v-51c0-2-1-3-3-3z m82 0c-2 0-3 1-3 3v51c0 2 1 3 3 3s3-1 3-3v-51c0-2-1-3-3-3z m79 0c-2 0-3 1-3 3v51c0 2 1 3 3 3 2 0 3-1 3-3v-51c0-2-1-3-3-3z m79 0c-2 0-3 1-3 3v51c0 2 1 3 3 3s3-1 3-3v-51c0-2-2-3-3-3z m79 0c-2 0-3 1-3 3v51c0 2 1 3 3 3s3-1 3-3v-51c0-2-2-3-3-3z m-319-295c-2 0-3 1-3 3v51c0 2 1 3 3 3s3-1 3-3v-51c0-1-1-3-3-3z m82 0c-2 0-3 1-3 3v51c0 2 1 3 3 3s3-1 3-3v-51c0-1-1-3-3-3z m79 0c-2 0-3 1-3 3v51c0 2 1 3 3 3 2 0 3-1 3-3v-51c0-1-1-3-3-3z m79 0c-2 0-3 1-3 3v51c0 2 1 3 3 3s3-1 3-3v-51c0-1-2-3-3-3z m79 0c-2 0-3 1-3 3v51c0 2 1 3 3 3s3-1 3-3v-51c0-1-2-3-3-3z" horiz-adv-x="1000" />
<glyph glyph-name="paperclip" unicode="&#xe80c;" d="m615 121c-27 0-55 11-76 32l-250 250c-40 44-45 107-10 141l14 14c32 32 78 24 131-20 17-17 61-62 99-101 31-31 60-61 69-70 33-33 35-68 7-97l-3-3c-21-21-50-19-76 3-2 2-34 33-66 64-33 32-66 65-68 66-1 1-1 3 0 4s3 1 4 0c2-2 35-35 68-66 33-32 64-62 66-64 24-20 49-22 68-3l3 3c35 35 11 70-7 88-9 9-38 39-69 70-38 39-82 84-99 101-29 24-83 60-122 21l-15-14c-32-32-27-92 10-133l250-250c40-40 103-40 143 0l17 17c42 42 45 112 7 150l-185 185c-1 1-1 3 0 4 1 1 3 1 4 0l185-185c20-20 30-48 28-79-2-30-15-58-35-79l-17-17c-21-22-48-32-75-32z" horiz-adv-x="1000" />
<glyph glyph-name="pencil" unicode="&#xe80d;" d="m272 100c-8 0-14 2-17 5-3 2-4 6-5 12-2 32 34 121 59 146l308 308c16 16 31 30 50 30 16 0 33-10 53-30 44-44 26-78 0-107l-307-308c-24-24-105-56-141-56z m396 495c-17 0-30-12-46-28l-308-308c-24-24-59-111-58-141 0-4 1-7 3-8 2-2 5-3 13-3 35 0 114 32 137 55l308 308c28 31 38 60 0 99-19 17-35 26-49 26z m-302-378c-1 0-2 0-2 1-1 1-1 3 0 4l216 216c1 1 3 1 4 0 1-1 1-3 0-4l-215-216c-1-1-2-1-3-1z m292 192c-1 0-2 0-2 1l-92 96c-1 1-1 3 0 4 1 1 3 1 4 0l92-96c1-1 1-3 0-4-1-1-2-1-2-1z m47 48c-1 0-2 0-2 1l-99 96c-1 1-1 3 0 4 1 1 3 1 4 0l99-96c1-1 1-3 0-4 0-1-1-1-2-1z m-428-289l52-50c-1 0-1 0-2 1l-55 51c-1 1-1 3 0 4 1 1 3 1 4 0l55-51c1-1 1-3 0-4-1-1-1-1-2-1z m127-9c-2 0-3 1-3 3 0 38-48 45-49 45-2 0-3 2-3 3 1 12-2 21-8 27-12 12-33 11-33 11-2 0-3 1-3 3 0 2 1 3 3 3 1 0 24 2 38-12 7-7 11-17 10-29 11-2 51-13 51-50 0-3-1-4-3-4z" horiz-adv-x="1000" />
<glyph glyph-name="phone" unicode="&#xe80e;" d="m630 118h-257c-2 0-3 1-3 3v458c0 2 1 3 3 3h257c2 0 3-1 3-3v-459c0-1-1-2-3-2z m-254 6h251v452h-251v-452z m213 88h-178c-1 0-1 1-1 2v321c0 1 1 1 1 1h178c1 0 2-1 2-1v-322c0-1-1-1-2-1z m-177 3h175v318h-175v-318z" horiz-adv-x="1000" />
<glyph glyph-name="refresh-a" unicode="&#xe80f;" d="m476 354c-1 0-2 0-2 1-1 1-1 3 0 4l77 77-77 77c-1 1-1 3 0 4 1 1 3 1 4 0l79-79c1-1 1-1 1-2s0-2-1-2l-79-79c0-1-1-1-2-1z m69-168c-1 0-1 0-2 1l-79 75c-1 1-1 1-1 2 0 1 0 2 1 2l79 79c1 1 3 1 4 0s1-3 0-4l-77-77 77-73c1-1 1-3 0-4-1-1-2-1-2-1z m75 75h-147c-2 0-3 1-3 3s1 3 3 3h147c70 0 117 15 117 86 0 30-7 51-21 64-22 21-59 21-100 19-2 0-3 1-3 3 0 2 1 3 3 3 41 2 80 2 104-20 15-14 22-37 22-68 1-81-58-93-122-93z m-212 0c-77 0-150 0-150 89 0 81 59 92 123 92h147c2 0 3-1 3-3s-1-3-3-3h-148c-70 0-117-15-117-86 0-83 67-83 144-83 2 0 3-1 3-3s-1-3-2-3z" horiz-adv-x="1000" />
<glyph glyph-name="refresh" unicode="&#xe810;" d="m682 315l-92 91c-1 1-1 3 0 4s3 1 4 0l87-87 87 87c1 1 3 1 4 0s1-3 0-4l-90-91z m-274-13c-1 0-2 0-2 1l-88 87-87-87c-1-1-3-1-4 0s-1 3 0 4l91 91 91-91c1-1 1-3 0-4 0 0-1-1-1-1z m92-140c-104 0-188 84-188 188 0 10 0 24 4 35 1 2 2 2 4 2s2-2 2-4c-3-10-3-23-3-33 0-100 82-182 182-182 64 0 125 34 155 88 1 1 3 2 4 1s2-3 1-4c-32-55-95-91-161-91z m178 161c0 0-1 0-1 0-1 1-2 3-1 4 3 6 3 16 3 26 0 100-82 182-182 182-60 0-119-34-155-88-1-1-3-2-4-1-1 1-2 3-1 4 37 56 98 90 160 90 104 0 188-84 188-188 0-10 0-21-4-29-1 1-2 0-3 0z" horiz-adv-x="1000" />
<glyph glyph-name="search" unicode="&#xe811;" d="m565 312c31-34 79-92 96-110 21-21-14-55-38-27-31 38-58 68-92 106m112-118c-8 0-15 4-21 11-30 37-58 68-92 106-1 1-1 2 0 3 1 1 2 1 3 0 35-38 62-69 93-106 7-8 15-11 23-9 8 2 15 8 17 16 2 7 0 13-5 18-10 10-29 32-50 56-16 19-33 38-46 53-1 1-1 2 0 3 1 1 2 1 3 0 14-15 30-35 46-53 20-24 40-47 49-56 6-6 8-14 6-22-3-9-11-16-20-18-2-2-4-2-6-2z m-177 102c-75 0-137 61-137 137s61 136 137 136c75 0 137-61 137-137s-62-136-137-136z m0 267c-72 0-131-59-131-131 0-72 59-131 131-131s131 59 131 131c-1 72-59 131-131 131z" horiz-adv-x="1000" />
<glyph glyph-name="tablet" unicode="&#xe812;" d="m688 118h-373c-2 0-3 1-3 3v458c0 2 1 3 3 3h370c2 0 3-1 3-3v-456h0c2 0 3-1 3-3s-1-2-3-2z m-370 6h364v452h-364v-452z m333 88h-302c-1 0-1 1-1 2v324c0 1 1 1 1 1h301c1 0 2-1 2-1v-325c0-1 0-1-1-1z m-300 3h298v322h-298v-322z" horiz-adv-x="1000" />
<glyph glyph-name="user-girl" unicode="&#xe813;" d="m685 73h-312c-2 0-3 1-3 3v106c0 68 47 130 113 151-21 8-37 22-50 35-16 19-35 50-35 91 0 70 52 126 123 133l11 0c73 0 133-60 133-133 0-56-33-103-85-123 68-21 113-84 109-155v-106c-1-1-2-2-4-2z m-309 6h306v103c3 71-44 134-114 151-1 0-2 1-2 3s1 3 2 3c55 17 90 64 90 120 0 70-57 127-127 127h-10c-68-7-117-60-117-127 0-40 18-69 34-87 15-15 32-30 57-37 1 0 2-2 2-3 0-1-1-3-2-3-68-17-118-79-118-148v-102z m-6 244c-31 0-53 14-54 14-1 1-1 1-1 2v7c0 1 1 2 2 3 1 0 3 0 3-1 0 0 3-3 9-4 6 0 16 3 31 18 22 22 15 76 10 115-2 15-4 28-4 37-4 33 19 99 78 109 59 14 81-20 82-22 1-1 0-3-1-4-1-1-3 0-4 1-1 1-20 32-76 19-55-10-77-71-73-103 0-9 2-22 4-36 5-41 13-97-11-120-13-13-25-20-36-19-2 0-3 0-4 1 15-8 65-28 118 20 1 1 3 1 4 0 1-1 1-3 0-4-27-26-54-33-77-33z m281 110c-1 0-1 0 0 0-121 24-160 141-160 142-1 2 0 3 2 4 2 1 3 0 4-2 0-1 39-115 155-138 2 0 3-2 2-4-1-1-2-2-3-2z" horiz-adv-x="1000" />
<glyph glyph-name="user" unicode="&#xe814;" d="m654 94h-312c-2 0-3 1-3 3v106c0 68 47 130 112 151-50 17-85 67-85 123 1 73 61 133 134 133 73 0 133-60 133-133 0-56-33-103-85-123 65-21 109-81 109-151v-106c0-2-1-3-3-3z m-309 6h306v103c0 70-47 131-114 148-1 0-2 1-2 3s1 3 2 3c55 17 90 64 90 120 0 70-57 127-127 127-70 0-127-57-127-127 0-58 37-107 90-120 1 0 2-2 2-3s-1-3-2-3c-68-17-118-79-118-148v-103z" horiz-adv-x="1000" />
<glyph glyph-name="arrow-down" unicode="&#xe815;" d="m476 233l-180 180c-1 1-1 3 0 4 1 1 3 1 4 0l176-176 179 176c1 1 3 1 4 0 1-1 1-3 0-4l-183-180z" horiz-adv-x="1000" />
<glyph glyph-name="arrow-left" unicode="&#xe816;" d="m589 169c-1 0-2 0-2 1l-178 178c-1 1-1 3 0 4l178 182c1 1 3 1 4 0 1-1 1-3 0-4l-176-180 176-176c1-1 1-3 0-4 0-1-1-1-2-1z" horiz-adv-x="1000" />
<glyph glyph-name="arrow-right" unicode="&#xe817;" d="m411 169c-1 0-2 0-2 1-1 1-1 3 0 4l176 176-176 179c-1 1-1 3 0 4 1 1 3 1 4 0l178-182c1-1 1-3 0-4l-178-177c-1-1-1-1-2-1z" horiz-adv-x="1000" />
<glyph glyph-name="arrow-up" unicode="&#xe818;" d="m678 258c-1 0-2 0-2 1l-176 176-179-176c-1-1-3-1-4 0-1 1-1 3 0 4l182 178c1 1 3 1 4 0l177-178c1-1 1-3 0-4 0-1-1-1-2-1z" horiz-adv-x="1000" />
<glyph glyph-name="camera" unicode="&#xe819;" d="m740 142h-483c-2 0-3 1-3 3v345c0 2 1 3 3 3h483c2 0 3-1 3-3v-346c0-1-2-2-3-2z m-480 6h477v340h-477v-340z m428 340h-123c-2 0-3 0-3 2v72c0 2 1 3 3 3h123c2 0 3-1 3-3v-72c0-1-1-2-3-2z m-120 5h117v66h-117v-66z m-68-297c-66 0-119 54-119 119s53 120 119 120 119-54 119-119-53-120-119-120z m0 233c-63 0-113-51-113-113s50-114 113-114 113 51 113 113-50 114-113 114z m0-197c-46 0-84 38-84 84s38 84 84 84 84-38 84-84-38-84-84-84z m0 164c-44 0-81-36-81-81s36-81 81-81 81 36 81 81-37 81-81 81z" horiz-adv-x="1000" />
<glyph glyph-name="checkbox" unicode="&#xe81a;" d="m702 90l0 0-408 3c-29 0-54 25-54 54v408c0 29 25 54 54 54l408 0c28 0 54-28 54-58v-408c0-27-25-53-54-53z m-407 514c-26 0-48-23-48-48v-408c0-26 23-48 48-48l408-3c26 0 48 23 48 48v407c0 27-24 52-48 52l-408 0z m171-394c-1 0-1 0-2 1l-120 110c-1 1-1 3 0 4 1 1 3 1 4 0l117-107 186 271c1 1 3 2 4 1 1-1 2-3 1-4l-188-275c0 0-1-1-2-1 0 0 0 0 0 0z" horiz-adv-x="1000" />
<glyph glyph-name="checkmark" unicode="&#xe81b;" d="m459 179c-1 0-1 0-2 1l-144 134c-1 1-1 3 0 4 1 1 3 1 4 0l141-131 224 333c1 1 3 2 4 1 1-1 2-3 1-4l-226-336c0-1-1-2-2-2 0 0 0 0 0 0z" horiz-adv-x="1000" />
<glyph glyph-name="close" unicode="&#xe81c;" d="m654 193c-1 0-2 0-2 1l-308 308c-1 1-1 3 0 4 1 1 3 1 4 0l308-308c1-1 1-3 0-4 0-1-1-1-2-1z m-308 0c-1 0-2 0-2 1-1 1-1 3 0 4l308 308c1 1 3 1 4 0 1-1 1-3 0-4l-308-308c-1-1-1-1-2-1z" horiz-adv-x="1000" />
</font>
</defs>
</svg>
